# xmcd
#
# Track frame offsets: 
#        150
#        22227
#        34332
#        41060
#        52857
#        62100
#        86615
#        105997
#        110595
#        122457
#        138470
#        144115
#        160712
#
# Disc length: 2558 seconds
#
# Revision: 2
# Processed by: cddbd v1.5.2PL0 Copyright (c) Steve Scherf et al.
# Submitted via: ExactAudioCopy v1.0b3
#
DISCID=a909fc0d
DTITLE=国吉良一 - 鉄道員
DYEAR=1999
DGENRE=Soundtrack
TTITLE0=序章
TTITLE1=回想
TTITLE2=鉄道員たち - 「鉄道員の唄」
TTITLE3=幌舞駅
TTITLE4=出発!進行
TTITLE5=坂本美雨 - 「鉄道員」
TTITLE6=鉄路
TTITLE7=ロコモティーバ
TTITLE8=邂逅
TTITLE9=高倉健 - ぽっぽや
TTITLE10=テネシーワルツ
TTITLE11=奇蹟
TTITLE12=終章
EXTD=
EXTT0=
EXTT1=
EXTT2=
EXTT3=
EXTT4=
EXTT5=
EXTT6=
EXTT7=
EXTT8=
EXTT9=
EXTT10=
EXTT11=
EXTT12=
PLAYORDER=
